<svg width="35" height="32" viewBox="0 0 35 32" fill="none" xmlns="http://www.w3.org/2000/svg">
<g clip-path="url(#clip0_1349_33631)">
<path d="M9.81438 12.5921C9.53723 12.385 9.25938 12.2814 8.98223 12.2814H7.73652V19.7436H8.98295C9.26009 19.7436 9.53795 19.64 9.81509 19.4329C10.0922 19.2257 10.2308 18.915 10.2308 18.5V13.525C10.2301 13.1107 10.0908 12.7993 9.81438 12.5921ZM30.0987 0H4.37009C2.64152 0 1.23866 1.39929 1.23438 3.12857V28.8714C1.23866 30.6007 2.64152 32 4.37009 32H30.0987C31.8279 32 33.2301 30.6007 33.2344 28.8714V3.12857C33.2301 1.39929 31.8272 0 30.0987 0ZM12.2487 18.5136C12.2487 19.8571 11.4194 21.8929 8.79437 21.8886H5.48009V10.07H8.86438C11.3958 10.07 12.2472 12.1029 12.2479 13.4471L12.2487 18.5136ZM19.4401 12.1807H15.6344V14.925H17.9608V17.0371H15.6344V19.7807H19.4408V21.8929H14.9994C14.2022 21.9136 13.5394 21.2836 13.5194 20.4864V11.55C13.5001 10.7536 14.1308 10.0921 14.9272 10.0721H19.4408L19.4401 12.1807ZM26.8429 20.4157C25.9001 22.6121 24.2108 22.175 23.4544 20.4157L20.7022 10.0729H23.0287L25.1508 18.1957L27.2629 10.0729H29.5901L26.8429 20.4157Z" fill="black"/>
</g>
<defs>
<clipPath id="clip0_1349_33631">
<rect width="34.4679" height="32" fill="white"/>
</clipPath>
</defs>
</svg>
