<svg width="33" height="33" viewBox="0 0 33 33" fill="none" xmlns="http://www.w3.org/2000/svg">
<path fill-rule="evenodd" clip-rule="evenodd" d="M2.26763 11.0257C-0.755878 14.0492 -0.755878 18.9508 2.26763 21.974L11.0258 30.7326C14.0494 33.7558 18.9509 33.7558 21.9741 30.7326L30.7326 21.974C33.7558 18.9505 33.7558 14.0489 30.7326 11.0257L21.9741 2.26744C18.9506 -0.755812 14.0491 -0.755812 11.0258 2.26744L2.26763 11.0257ZM20.3317 20.3319C22.4482 18.2154 22.4482 14.7843 20.3317 12.6681C18.2155 10.5516 14.7844 10.5516 12.6682 12.6681C10.5518 14.7846 10.5518 18.2154 12.6682 20.3319C14.7847 22.4481 18.2152 22.4481 20.3317 20.3319Z" fill="#2962FF"/>
</svg>
