<svg width="34" height="34" viewBox="0 0 34 34" fill="none" xmlns="http://www.w3.org/2000/svg">
<rect x="2.08203" y="2.08301" width="29.1667" height="29.1667" rx="6.25" fill="url(#paint0_radial_1349_33617)"/>
<rect x="2.08203" y="2.08301" width="29.1667" height="29.1667" rx="6.25" fill="url(#paint1_radial_1349_33617)"/>
<rect x="2.08203" y="2.08301" width="29.1667" height="29.1667" rx="6.25" fill="url(#paint2_radial_1349_33617)"/>
<path d="M23.9583 10.9375C23.9583 11.8004 23.2588 12.5 22.3958 12.5C21.5329 12.5 20.8333 11.8004 20.8333 10.9375C20.8333 10.0746 21.5329 9.375 22.3958 9.375C23.2588 9.375 23.9583 10.0746 23.9583 10.9375Z" fill="white"/>
<path fill-rule="evenodd" clip-rule="evenodd" d="M16.6667 21.875C19.5431 21.875 21.875 19.5431 21.875 16.6667C21.875 13.7902 19.5431 11.4583 16.6667 11.4583C13.7902 11.4583 11.4583 13.7902 11.4583 16.6667C11.4583 19.5431 13.7902 21.875 16.6667 21.875ZM16.6667 19.7917C18.3926 19.7917 19.7917 18.3926 19.7917 16.6667C19.7917 14.9408 18.3926 13.5417 16.6667 13.5417C14.9408 13.5417 13.5417 14.9408 13.5417 16.6667C13.5417 18.3926 14.9408 19.7917 16.6667 19.7917Z" fill="white"/>
<path fill-rule="evenodd" clip-rule="evenodd" d="M6.25 16.25C6.25 12.7497 6.25 10.9995 6.93121 9.66256C7.53042 8.48655 8.48655 7.53042 9.66256 6.93121C10.9995 6.25 12.7497 6.25 16.25 6.25H17.0833C20.5837 6.25 22.3338 6.25 23.6708 6.93121C24.8468 7.53042 25.8029 8.48655 26.4021 9.66256C27.0833 10.9995 27.0833 12.7497 27.0833 16.25V17.0833C27.0833 20.5837 27.0833 22.3338 26.4021 23.6708C25.8029 24.8468 24.8468 25.8029 23.6708 26.4021C22.3338 27.0833 20.5837 27.0833 17.0833 27.0833H16.25C12.7497 27.0833 10.9995 27.0833 9.66256 26.4021C8.48655 25.8029 7.53042 24.8468 6.93121 23.6708C6.25 22.3338 6.25 20.5837 6.25 17.0833V16.25ZM16.25 8.33333H17.0833C18.8679 8.33333 20.081 8.33495 21.0187 8.41157C21.932 8.48619 22.3991 8.62145 22.725 8.78747C23.509 9.18694 24.1464 9.82436 24.5459 10.6084C24.7119 10.9342 24.8471 11.4013 24.9218 12.3147C24.9984 13.2523 25 14.4655 25 16.25V17.0833C25 18.8679 24.9984 20.081 24.9218 21.0187C24.8471 21.932 24.7119 22.3991 24.5459 22.725C24.1464 23.509 23.509 24.1464 22.725 24.5459C22.3991 24.7119 21.932 24.8471 21.0187 24.9218C20.081 24.9984 18.8679 25 17.0833 25H16.25C14.4655 25 13.2523 24.9984 12.3147 24.9218C11.4013 24.8471 10.9342 24.7119 10.6084 24.5459C9.82436 24.1464 9.18694 23.509 8.78747 22.725C8.62145 22.3991 8.48619 21.932 8.41157 21.0187C8.33495 20.081 8.33333 18.8679 8.33333 17.0833V16.25C8.33333 14.4655 8.33495 13.2523 8.41157 12.3147C8.48619 11.4013 8.62145 10.9342 8.78747 10.6084C9.18694 9.82436 9.82436 9.18694 10.6084 8.78747C10.9342 8.62145 11.4013 8.48619 12.3147 8.41157C13.2523 8.33495 14.4655 8.33333 16.25 8.33333Z" fill="white"/>
<defs>
<radialGradient id="paint0_radial_1349_33617" cx="0" cy="0" r="1" gradientUnits="userSpaceOnUse" gradientTransform="translate(12.4987 23.958) rotate(-55.3758) scale(26.5829)">
<stop stop-color="#B13589"/>
<stop offset="0.79309" stop-color="#C62F94"/>
<stop offset="1" stop-color="#8A3AC8"/>
</radialGradient>
<radialGradient id="paint1_radial_1349_33617" cx="0" cy="0" r="1" gradientUnits="userSpaceOnUse" gradientTransform="translate(11.457 32.2913) rotate(-65.1363) scale(23.5357)">
<stop stop-color="#E0E8B7"/>
<stop offset="0.444662" stop-color="#FB8A2E"/>
<stop offset="0.71474" stop-color="#E2425C"/>
<stop offset="1" stop-color="#E2425C" stop-opacity="0"/>
</radialGradient>
<radialGradient id="paint2_radial_1349_33617" cx="0" cy="0" r="1" gradientUnits="userSpaceOnUse" gradientTransform="translate(0.519533 3.12467) rotate(-8.1301) scale(40.5113 8.66495)">
<stop offset="0.156701" stop-color="#406ADC"/>
<stop offset="0.467799" stop-color="#6A45BE"/>
<stop offset="1" stop-color="#6A45BE" stop-opacity="0"/>
</radialGradient>
</defs>
</svg>
