<svg width="33" height="33" viewBox="0 0 33 33" fill="none" xmlns="http://www.w3.org/2000/svg">
<g clip-path="url(#clip0_1349_33645)">
<path d="M16.4997 13.6445C18.0773 13.6445 19.3559 14.9228 19.3559 16.4999C19.3559 18.0773 18.0773 19.3559 16.4997 19.3559C14.9227 19.3559 13.6441 18.0769 13.6441 16.4999C13.6441 14.9228 14.9227 13.6445 16.4997 13.6445ZM6.76925 16.4999C6.76925 11.1258 11.1258 6.76938 16.4997 6.76938C21.8745 6.76938 26.2306 11.1258 26.2306 16.4999C26.2306 16.8557 26.2117 17.2065 26.1744 17.5517C26.1006 18.5004 26.7966 19.2244 27.7392 19.2244C29.3388 19.2244 29.5092 17.1619 29.5092 16.4999C29.5092 9.31464 23.6848 3.49039 16.4997 3.49039C9.31464 3.49039 3.49039 9.31477 3.49039 16.4999C3.49039 23.6846 9.31464 29.5091 16.4996 29.5091C20.3155 29.5091 23.7476 27.8672 26.1275 25.2507L28.8019 27.4965C25.781 30.8734 21.3885 33.0005 16.4997 33.0005C7.3871 33.0005 0 25.6126 0 16.4999C0 7.3871 7.3871 0 16.4997 0C25.6129 0 33 7.3871 33 16.5C33 20.1629 31.2559 23.1374 27.7527 23.1374C26.211 23.1374 25.2739 22.431 24.7621 21.6426C23.0438 24.3971 19.9864 26.2311 16.4997 26.2311C11.1256 26.2311 6.76925 21.8738 6.76925 16.4999ZM16.4997 10.2595C13.0536 10.2595 10.2594 13.0533 10.2594 16.4999C10.2594 19.9464 13.0536 22.7405 16.4997 22.7405C19.9462 22.7405 22.7405 19.9464 22.7405 16.4999C22.7405 13.0533 19.9462 10.2595 16.4997 10.2595Z" fill="#AF252A"/>
</g>
<defs>
<clipPath id="clip0_1349_33645">
<rect width="33" height="33" fill="white"/>
</clipPath>
</defs>
</svg>
