<svg width="28" height="28" viewBox="0 0 28 28" fill="none" xmlns="http://www.w3.org/2000/svg">
<path d="M21.0035 1.11679C21.0035 0.237831 20.0194 0.237821 19.582 0.347691C20.1944 -0.135738 20.9124 -0.0185322 21.1676 0.127962L27.0809 3.02747C27.6444 3.30375 28.0018 3.8786 28.0018 4.50857V23.5831C28.0018 24.2215 27.6348 24.8025 27.06 25.0743L21.4956 27.7054C21.1129 27.8701 20.2819 28.2767 19.582 27.7053C20.4568 27.8702 20.9306 27.2476 21.0035 26.8264V1.11679Z" fill="url(#paint0_linear_1349_33651)"/>
<path d="M19.6512 0.331903C20.1154 0.240167 21.0018 0.282709 21.0018 1.11685V7.68254L3.07359 21.2453C2.76022 21.4824 2.3192 21.443 2.05229 21.1542L0.204532 19.1548C-0.0849358 18.8416 -0.0646824 18.3513 0.249624 18.0633L19.5802 0.347749L19.6512 0.331903Z" fill="url(#paint1_linear_1349_33651)"/>
<path d="M21.0018 20.3708L3.07359 6.80801C2.76022 6.57094 2.3192 6.61028 2.05229 6.8991L0.204532 8.8985C-0.0849358 9.21173 -0.0646824 9.70202 0.249624 9.99006L19.5802 27.7056C20.455 27.8704 20.9289 27.2478 21.0018 26.8266V20.3708Z" fill="url(#paint2_linear_1349_33651)"/>
<defs>
<linearGradient id="paint0_linear_1349_33651" x1="23.7919" y1="0" x2="23.7919" y2="28" gradientUnits="userSpaceOnUse">
<stop stop-color="#32B5F1"/>
<stop offset="1" stop-color="#2B9FED"/>
</linearGradient>
<linearGradient id="paint1_linear_1349_33651" x1="21.0018" y1="3.53398" x2="1.0217" y2="20.3051" gradientUnits="userSpaceOnUse">
<stop stop-color="#0F6FB3"/>
<stop offset="0.270551" stop-color="#1279B7"/>
<stop offset="0.421376" stop-color="#1176B5"/>
<stop offset="0.618197" stop-color="#0E69AC"/>
<stop offset="0.855344" stop-color="#0F70AF"/>
<stop offset="1" stop-color="#0F6DAD"/>
</linearGradient>
<linearGradient id="paint2_linear_1349_33651" x1="1.15522" y1="7.98389" x2="21.0791" y2="24.4808" gradientUnits="userSpaceOnUse">
<stop stop-color="#1791D2"/>
<stop offset="1" stop-color="#1173C5"/>
</linearGradient>
</defs>
</svg>
