<svg width="119" height="40" viewBox="0 0 119 40" fill="none" xmlns="http://www.w3.org/2000/svg">
    <path d="M7.64129 39.9978C7.33382 39.9978 7.03377 39.9937 6.72871 39.9866C6.09674 39.9781 5.46626 39.921 4.84242 39.816C4.26072 39.7122 3.69721 39.5191 3.17048 39.2431C2.64857 38.9694 2.17255 38.6104 1.76066 38.18C1.3428 37.7547 0.994912 37.2615 0.730784 36.7197C0.463746 36.1745 0.278939 35.5901 0.182802 34.9868C0.0789825 34.3386 0.0228118 33.6832 0.0147744 33.0261C0.00837619 32.8056 0 32.0713 0 32.0713V7.91521C0 7.91521 0.00892115 7.19221 0.0148248 6.97979C0.0225206 6.32381 0.0783647 5.66939 0.181874 5.02218C0.278188 4.41727 0.463138 3.83116 0.73032 3.28414C0.993478 2.7428 1.33943 2.24914 1.75477 1.82231C2.16965 1.39142 2.64719 1.03064 3.16998 0.753119C3.6955 0.47798 4.25795 0.28624 4.83847 0.184324C5.46436 0.0782557 6.09703 0.0209098 6.73119 0.0127679L7.64179 0H111.353L112.275 0.0132803C112.903 0.0210176 113.53 0.0778519 114.15 0.1833C114.737 0.286494 115.305 0.479571 115.836 0.756183C116.884 1.31547 117.736 2.20031 118.274 3.28669C118.537 3.82993 118.719 4.41126 118.814 5.01095C118.918 5.66347 118.977 6.32304 118.989 6.9844C118.992 7.28054 118.992 7.59864 118.992 7.91521C119 8.30734 119 8.68058 119 9.05689V30.9419C119 31.3218 119 31.6925 118.992 32.0662C118.992 32.4063 118.992 32.7178 118.988 33.0384C118.976 33.6879 118.919 34.3357 118.816 34.9766C118.721 35.5842 118.538 36.1732 118.271 36.7229C118.005 37.2587 117.659 37.7477 117.246 38.1719C116.833 38.6046 116.357 38.9656 115.834 39.2411C115.303 39.5193 114.736 39.7131 114.15 39.816C113.526 39.9216 112.896 39.9786 112.264 39.9866C111.968 39.9937 111.659 39.9978 111.358 39.9978L110.264 39.9999L7.64129 39.9978Z" fill="black"/>
    <path d="M24.6312 20.3013C24.6419 19.4666 24.8624 18.6483 25.2721 17.9223C25.6819 17.1963 26.2675 16.5864 26.9747 16.1492C26.5255 15.5041 25.9328 14.9731 25.2438 14.5986C24.5549 14.224 23.7885 14.0162 23.0057 13.9916C21.3358 13.8153 19.7168 14.9964 18.8659 14.9964C17.9985 14.9964 16.6883 14.0091 15.2774 14.0383C14.3648 14.0679 13.4754 14.3348 12.6959 14.8128C11.9164 15.2909 11.2733 15.9638 10.8293 16.7661C8.90604 20.1145 10.3406 25.0356 12.183 27.7422C13.1047 29.0675 14.182 30.548 15.5916 30.4955C16.9709 30.4379 17.4861 29.611 19.1511 29.611C20.8007 29.611 21.284 30.4955 22.7222 30.4621C24.2023 30.4379 25.1348 29.1308 26.0243 27.7929C26.6865 26.8486 27.1962 25.8049 27.5342 24.7004C26.6743 24.3347 25.9405 23.7225 25.4243 22.9402C24.908 22.158 24.6322 21.2402 24.6312 20.3013Z" fill="white"/>
    <path d="M21.9151 12.2113C22.7221 11.2371 23.1197 9.98493 23.0234 8.7207C21.7904 8.85092 20.6515 9.44348 19.8336 10.3803C19.4337 10.838 19.1274 11.3704 18.9323 11.9472C18.7371 12.5239 18.6569 13.1337 18.6963 13.7417C19.313 13.7481 19.9231 13.6137 20.4806 13.3486C21.0382 13.0835 21.5286 12.6946 21.9151 12.2113Z" fill="white"/>
    <path d="M42.0676 27.1396H37.3605L36.2301 30.4961H34.2363L38.6949 18.0781H40.7663L45.2248 30.4961H43.1971L42.0676 27.1396ZM37.848 25.5908H41.5792L39.7398 20.1436H39.6884L37.848 25.5908Z" fill="white"/>
    <path d="M54.8541 25.9694C54.8541 28.7829 53.3566 30.5905 51.0967 30.5905C50.5243 30.6206 49.9549 30.488 49.4539 30.2079C48.9529 29.9277 48.5405 29.5114 48.2639 29.0065H48.2211V33.4909H46.373V21.4421H48.1619V22.948H48.1959C48.4853 22.4455 48.9046 22.0313 49.4095 21.7495C49.9143 21.4676 50.4856 21.3287 51.0627 21.3474C53.3478 21.3474 54.8541 23.1638 54.8541 25.9694ZM52.9545 25.9694C52.9545 24.1364 52.0125 22.9314 50.5752 22.9314C49.1632 22.9314 48.2134 24.1618 48.2134 25.9694C48.2134 27.7937 49.1632 29.0153 50.5752 29.0153C52.0125 29.0153 52.9545 27.819 52.9545 25.9694Z" fill="white"/>
    <path d="M64.7633 25.9694C64.7633 28.7829 63.2658 30.5905 61.0059 30.5905C60.4334 30.6206 59.8641 30.488 59.3631 30.2079C58.8621 29.9277 58.4497 29.5114 58.1731 29.0065H58.1303V33.4909H56.2822V21.4421H58.0711V22.9479H58.1051C58.3944 22.4455 58.8138 22.0313 59.3186 21.7495C59.8234 21.4676 60.3948 21.3287 60.9719 21.3474C63.257 21.3474 64.7633 23.1638 64.7633 25.9694ZM62.8637 25.9694C62.8637 24.1364 61.9217 22.9313 60.4844 22.9313C59.0723 22.9313 58.1226 24.1618 58.1226 25.9694C58.1226 27.7936 59.0723 29.0153 60.4844 29.0153C61.9217 29.0153 62.8637 27.819 62.8637 25.9694H62.8637Z" fill="white"/>
    <path d="M71.3127 27.0362C71.4497 28.2676 72.6393 29.0761 74.265 29.0761C75.8227 29.0761 76.9434 28.2676 76.9434 27.1572C76.9434 26.1933 76.2675 25.6162 74.667 25.2207L73.0666 24.833C70.799 24.2822 69.7463 23.2158 69.7463 21.4853C69.7463 19.3428 71.6031 17.8711 74.2397 17.8711C76.8492 17.8711 78.6381 19.3428 78.6983 21.4853H76.8327C76.721 20.2461 75.7023 19.498 74.2135 19.498C72.7247 19.498 71.706 20.2549 71.706 21.3564C71.706 22.2344 72.3567 22.751 73.9484 23.1464L75.3089 23.4824C77.8427 24.0849 78.8954 25.1084 78.8954 26.9247C78.8954 29.248 77.0551 30.703 74.128 30.703C71.3894 30.703 69.5404 29.2822 69.4209 27.0361L71.3127 27.0362Z" fill="white"/>
    <path d="M82.8837 19.2998V21.4424H84.5958V22.9141H82.8837V27.9052C82.8837 28.6806 83.2265 29.042 83.9791 29.042C84.1824 29.0384 84.3853 29.024 84.5871 28.999V30.4618C84.2487 30.5254 83.9048 30.5542 83.5606 30.5478C81.7378 30.5478 81.0269 29.8593 81.0269 28.1035V22.9141H79.7178V21.4424H81.0268V19.2998H82.8837Z" fill="white"/>
    <path d="M85.5879 25.9697C85.5879 23.1211 87.2563 21.3311 89.858 21.3311C92.4684 21.3311 94.1291 23.121 94.1291 25.9697C94.1291 28.8261 92.4772 30.6084 89.858 30.6084C87.2398 30.6084 85.5879 28.8261 85.5879 25.9697ZM92.246 25.9697C92.246 24.0156 91.3555 22.8623 89.858 22.8623C88.3605 22.8623 87.4709 24.0244 87.4709 25.9697C87.4709 27.9316 88.3605 29.0761 89.858 29.0761C91.3555 29.0761 92.246 27.9316 92.246 25.9697H92.246Z" fill="white"/>
    <path d="M95.6524 21.442H97.415V22.983H97.4577C97.577 22.5017 97.8574 22.0764 98.2518 21.7785C98.6462 21.4806 99.1305 21.3284 99.6234 21.3473C99.8364 21.3465 100.049 21.3698 100.257 21.4166V23.1549C99.9877 23.0723 99.7072 23.0343 99.4262 23.0426C99.1577 23.0316 98.8901 23.0792 98.6416 23.1821C98.3932 23.285 98.1698 23.4407 97.9868 23.6386C97.8039 23.8365 97.6657 24.0719 97.5817 24.3286C97.4978 24.5852 97.47 24.8571 97.5004 25.1256V30.4957H95.6523L95.6524 21.442Z" fill="white"/>
    <path d="M108.777 27.8369C108.528 29.4804 106.937 30.6084 104.9 30.6084C102.281 30.6084 100.655 28.8437 100.655 26.0127C100.655 23.1728 102.29 21.3311 104.822 21.3311C107.313 21.3311 108.88 23.0517 108.88 25.7969V26.4336H102.521V26.5459C102.491 26.8791 102.533 27.2147 102.643 27.5306C102.752 27.8464 102.927 28.1352 103.156 28.3777C103.385 28.6203 103.663 28.8111 103.971 28.9374C104.279 29.0637 104.61 29.1226 104.943 29.1103C105.38 29.1515 105.818 29.0498 106.192 28.8203C106.567 28.5909 106.858 28.246 107.022 27.8369L108.777 27.8369ZM102.53 25.1347H107.031C107.047 24.8352 107.002 24.5353 106.898 24.2541C106.794 23.9729 106.633 23.7164 106.426 23.5006C106.219 23.2849 105.969 23.1145 105.693 23.0003C105.417 22.8861 105.121 22.8305 104.822 22.8369C104.521 22.8351 104.223 22.8932 103.945 23.008C103.666 23.1227 103.413 23.2918 103.2 23.5054C102.987 23.7191 102.818 23.973 102.703 24.2527C102.588 24.5323 102.529 24.8321 102.53 25.1348V25.1347Z" fill="white"/>
    <path d="M37.616 8.73138C38.0034 8.70342 38.3922 8.76228 38.7543 8.90371C39.1164 9.04515 39.4428 9.26563 39.7099 9.54925C39.977 9.83287 40.1781 10.1726 40.2988 10.5438C40.4196 10.9151 40.4569 11.3087 40.408 11.6962C40.408 13.6025 39.3835 14.6982 37.616 14.6982H35.4727V8.73138H37.616ZM36.3943 13.8544H37.513C37.7899 13.871 38.0669 13.8254 38.3241 13.7207C38.5812 13.6161 38.8118 13.4552 38.9993 13.2496C39.1867 13.0441 39.3262 12.799 39.4076 12.5324C39.489 12.2658 39.5103 11.9843 39.4699 11.7084C39.5074 11.4335 39.484 11.1538 39.4013 10.8891C39.3186 10.6244 39.1788 10.3814 38.9918 10.1775C38.8048 9.97358 38.5752 9.81377 38.3195 9.70954C38.0639 9.6053 37.7885 9.55922 37.513 9.57459H36.3943V13.8544Z" fill="white"/>
    <path d="M41.4494 12.4448C41.4213 12.1489 41.455 11.8503 41.5483 11.5682C41.6416 11.2861 41.7925 11.0268 41.9913 10.8068C42.1902 10.5868 42.4325 10.4111 42.7029 10.2908C42.9732 10.1705 43.2656 10.1084 43.5612 10.1084C43.8568 10.1084 44.1492 10.1705 44.4195 10.2908C44.6899 10.4111 44.9322 10.5868 45.131 10.8068C45.3299 11.0268 45.4808 11.2861 45.5741 11.5682C45.6674 11.8503 45.7011 12.1489 45.6729 12.4448C45.7016 12.741 45.6684 13.04 45.5753 13.3225C45.4822 13.605 45.3314 13.8648 45.1325 14.0852C44.9336 14.3057 44.6911 14.4818 44.4205 14.6023C44.1499 14.7229 43.8572 14.7851 43.5612 14.7851C43.2652 14.7851 42.9725 14.7229 42.7019 14.6023C42.4313 14.4818 42.1888 14.3057 41.9899 14.0852C41.791 13.8648 41.6402 13.605 41.5471 13.3225C41.454 13.04 41.4208 12.741 41.4494 12.4448ZM44.7639 12.4448C44.7639 11.4687 44.3279 10.8979 43.5627 10.8979C42.7945 10.8979 42.3623 11.4687 42.3623 12.4448C42.3623 13.4287 42.7945 13.9951 43.5627 13.9951C44.3279 13.9951 44.764 13.4247 44.764 12.4448H44.7639Z" fill="white"/>
    <path d="M51.2867 14.6982H50.3699L49.4444 11.3818H49.3745L48.4529 14.6982H47.5449L46.3105 10.1953H47.2069L48.0091 13.6313H48.0751L48.9958 10.1953H49.8436L50.7642 13.6313H50.8341L51.6324 10.1953H52.5162L51.2867 14.6982Z" fill="white"/>
    <path d="M53.5547 10.1949H54.4054V10.9102H54.4715C54.5835 10.6533 54.7724 10.4379 55.012 10.2941C55.2515 10.1503 55.5297 10.0852 55.8077 10.1079C56.0256 10.0915 56.2444 10.1245 56.4479 10.2046C56.6513 10.2847 56.8343 10.4098 56.9831 10.5706C57.132 10.7315 57.2429 10.924 57.3078 11.1338C57.3726 11.3436 57.3897 11.5654 57.3577 11.7827V14.6977H56.4739V12.0059C56.4739 11.2823 56.1612 10.9224 55.5077 10.9224C55.3597 10.9155 55.2121 10.9408 55.0748 10.9966C54.9375 11.0525 54.8138 11.1375 54.7123 11.2459C54.6107 11.3542 54.5336 11.4834 54.4864 11.6246C54.4391 11.7657 54.4228 11.9154 54.4384 12.0635V14.6978H53.5547L53.5547 10.1949Z" fill="white"/>
    <path d="M58.7656 8.4375H59.6494V14.6982H58.7656V8.4375Z" fill="white"/>
    <path d="M60.8781 12.4449C60.85 12.1489 60.8837 11.8503 60.977 11.5683C61.0704 11.2862 61.2213 11.0268 61.4202 10.8068C61.619 10.5869 61.8614 10.4111 62.1318 10.2908C62.4021 10.1705 62.6945 10.1084 62.9901 10.1084C63.2858 10.1084 63.5781 10.1705 63.8485 10.2908C64.1189 10.4111 64.3612 10.5869 64.5601 10.8068C64.7589 11.0268 64.9099 11.2862 65.0032 11.5683C65.0966 11.8503 65.1302 12.1489 65.1021 12.4449C65.1308 12.7411 65.0975 13.0401 65.0044 13.3226C64.9113 13.6051 64.7604 13.8649 64.5615 14.0853C64.3626 14.3057 64.1201 14.4819 63.8494 14.6024C63.5788 14.7229 63.2861 14.7852 62.9901 14.7852C62.6941 14.7852 62.4014 14.7229 62.1308 14.6024C61.8602 14.4819 61.6176 14.3057 61.4187 14.0853C61.2198 13.8649 61.069 13.6051 60.9759 13.3226C60.8828 13.0401 60.8495 12.7411 60.8781 12.4449ZM64.1926 12.4449C64.1926 11.4688 63.7566 10.898 62.9913 10.898C62.2232 10.898 61.791 11.4688 61.791 12.4449C61.791 13.4288 62.2232 13.9951 62.9913 13.9951C63.7566 13.9951 64.1926 13.4248 64.1926 12.4449H64.1926Z" fill="white"/>
    <path d="M66.0322 13.4248C66.0322 12.6142 66.6324 12.147 67.6977 12.0806L68.9107 12.0102V11.6216C68.9107 11.146 68.598 10.8774 67.9939 10.8774C67.5006 10.8774 67.1588 11.0596 67.0607 11.3779H66.2051C66.2954 10.6045 67.0189 10.1084 68.0347 10.1084C69.1574 10.1084 69.7906 10.6704 69.7906 11.6216V14.6982H68.9398V14.0654H68.8699C68.728 14.2924 68.5287 14.4775 68.2924 14.6017C68.0561 14.7259 67.7912 14.7848 67.5249 14.7724C67.3369 14.7921 67.1469 14.7719 66.9671 14.7132C66.7874 14.6545 66.6218 14.5586 66.4812 14.4316C66.3406 14.3046 66.228 14.1495 66.1506 13.976C66.0733 13.8026 66.033 13.6148 66.0322 13.4248ZM68.9107 13.04V12.6636L67.8172 12.7339C67.2005 12.7754 66.9208 12.9863 66.9208 13.3833C66.9208 13.7885 67.2704 14.0244 67.7512 14.0244C67.892 14.0387 68.0343 14.0244 68.1696 13.9823C68.3048 13.9402 68.4303 13.8712 68.5385 13.7794C68.6466 13.6875 68.7354 13.5748 68.7993 13.4477C68.8632 13.3207 68.9011 13.1821 68.9107 13.04Z" fill="white"/>
    <path d="M70.9521 12.4448C70.9521 11.022 71.6795 10.1206 72.8109 10.1206C73.0908 10.1076 73.3685 10.1751 73.6117 10.3149C73.8549 10.4548 74.0534 10.6614 74.1841 10.9106H74.2502V8.4375H75.1339V14.6982H74.2871V13.9868H74.2171C74.0763 14.2343 73.8708 14.4383 73.623 14.5768C73.3751 14.7153 73.0943 14.7829 72.8109 14.7724C71.6718 14.7725 70.9521 13.8711 70.9521 12.4448ZM71.8651 12.4448C71.8651 13.3999 72.3128 13.9746 73.0615 13.9746C73.8064 13.9746 74.2667 13.3916 74.2667 12.4487C74.2667 11.5103 73.8015 10.919 73.0615 10.919C72.3176 10.919 71.865 11.4976 71.865 12.4448H71.8651Z" fill="white"/>
    <path d="M78.7903 12.4448C78.7621 12.1489 78.7958 11.8503 78.8891 11.5682C78.9824 11.2861 79.1333 11.0268 79.3322 10.8068C79.531 10.5868 79.7733 10.4111 80.0437 10.2908C80.314 10.1705 80.6064 10.1084 80.902 10.1084C81.1976 10.1084 81.49 10.1705 81.7603 10.2908C82.0307 10.4111 82.273 10.5868 82.4718 10.8068C82.6707 11.0268 82.8216 11.2861 82.9149 11.5682C83.0082 11.8503 83.0419 12.1489 83.0138 12.4448C83.0424 12.741 83.0092 13.04 82.9161 13.3225C82.823 13.605 82.6722 13.8648 82.4733 14.0852C82.2744 14.3057 82.0319 14.4818 81.7613 14.6023C81.4907 14.7229 81.198 14.7851 80.902 14.7851C80.606 14.7851 80.3133 14.7229 80.0427 14.6023C79.7721 14.4818 79.5296 14.3057 79.3307 14.0852C79.1318 13.8648 78.981 13.605 78.8879 13.3225C78.7948 13.04 78.7616 12.741 78.7903 12.4448ZM82.1048 12.4448C82.1048 11.4687 81.6687 10.8979 80.9035 10.8979C80.1353 10.8979 79.7032 11.4687 79.7032 12.4448C79.7032 13.4287 80.1353 13.9951 80.9035 13.9951C81.6687 13.9951 82.1048 13.4247 82.1048 12.4448Z" fill="white"/>
    <path d="M84.1992 10.1949H85.0499V10.9102H85.116C85.228 10.6533 85.417 10.4379 85.6565 10.2941C85.896 10.1503 86.1742 10.0852 86.4523 10.1079C86.6702 10.0915 86.8889 10.1245 87.0924 10.2046C87.2959 10.2847 87.4788 10.4098 87.6276 10.5706C87.7765 10.7315 87.8875 10.924 87.9523 11.1338C88.0171 11.3436 88.0342 11.5654 88.0022 11.7827V14.6977H87.1185V12.0059C87.1185 11.2823 86.8058 10.9224 86.1522 10.9224C86.0043 10.9155 85.8566 10.9408 85.7193 10.9966C85.582 11.0525 85.4583 11.1375 85.3568 11.2459C85.2552 11.3542 85.1782 11.4834 85.1309 11.6246C85.0836 11.7657 85.0673 11.9154 85.083 12.0635V14.6978H84.1992V10.1949Z" fill="white"/>
    <path d="M92.996 9.07422V10.2158H93.9662V10.9644H92.996V13.2798C92.996 13.7515 93.1892 13.958 93.6292 13.958C93.7418 13.9576 93.8543 13.9508 93.9662 13.9375V14.6777C93.8075 14.7063 93.6467 14.7214 93.4854 14.7231C92.5026 14.7231 92.1113 14.3755 92.1113 13.5073V10.9643H91.4004V10.2158H92.1113V9.07422H92.996Z" fill="white"/>
    <path d="M95.1729 8.4375H96.0488V10.9189H96.1187C96.2362 10.6596 96.4304 10.443 96.6747 10.2987C96.919 10.1543 97.2017 10.0893 97.4841 10.1123C97.7009 10.1004 97.9176 10.1368 98.1187 10.2189C98.3199 10.3009 98.5005 10.4266 98.6478 10.5869C98.7951 10.7473 98.9054 10.9383 98.9709 11.1464C99.0363 11.3546 99.0552 11.5747 99.0263 11.791V14.6982H98.1417V12.0102C98.1417 11.291 97.8085 10.9267 97.1841 10.9267C97.0322 10.9142 96.8795 10.9352 96.7365 10.9883C96.5935 11.0413 96.4638 11.1251 96.3564 11.2339C96.249 11.3426 96.1665 11.4736 96.1147 11.6178C96.063 11.7619 96.0431 11.9157 96.0566 12.0683V14.6982H95.1729L95.1729 8.4375Z" fill="white"/>
    <path d="M104.179 13.4825C104.059 13.894 103.799 14.25 103.444 14.4882C103.09 14.7263 102.663 14.8315 102.239 14.7852C101.944 14.793 101.651 14.7362 101.38 14.6187C101.109 14.5012 100.867 14.3257 100.67 14.1046C100.473 13.8835 100.326 13.6219 100.24 13.3381C100.154 13.0543 100.13 12.755 100.17 12.461C100.131 12.1661 100.155 11.8662 100.241 11.5815C100.327 11.2968 100.473 11.0341 100.669 10.811C100.865 10.5879 101.106 10.4098 101.376 10.2886C101.646 10.1674 101.939 10.1059 102.235 10.1085C103.481 10.1085 104.233 10.9645 104.233 12.3785V12.6886H101.071V12.7384C101.057 12.9036 101.078 13.0699 101.131 13.2267C101.185 13.3834 101.271 13.5271 101.383 13.6486C101.496 13.77 101.632 13.8666 101.783 13.932C101.935 13.9974 102.098 14.0302 102.263 14.0284C102.475 14.0539 102.689 14.0156 102.879 13.9184C103.068 13.8212 103.225 13.6694 103.329 13.4825L104.179 13.4825ZM101.071 12.0313H103.332C103.344 11.8802 103.323 11.7284 103.273 11.5857C103.222 11.443 103.142 11.3125 103.038 11.2026C102.934 11.0928 102.809 11.006 102.67 10.9478C102.531 10.8896 102.381 10.8613 102.23 10.8648C102.077 10.8629 101.926 10.8917 101.784 10.9497C101.643 11.0076 101.514 11.0935 101.406 11.2022C101.298 11.3109 101.212 11.4403 101.155 11.5827C101.097 11.7251 101.069 11.8776 101.071 12.0313H101.071Z" fill="white"/>
</svg>
