<svg width="16" height="17" viewBox="0 0 16 17" fill="none" xmlns="http://www.w3.org/2000/svg">
<g id="Check circle" clip-path="url(#clip0_780_24313)">
<path id="Icon" d="M14.6654 7.88674V8.50007C14.6645 9.93769 14.199 11.3365 13.3383 12.488C12.4775 13.6394 11.2676 14.4817 9.88894 14.8893C8.51032 15.297 7.03687 15.248 5.68835 14.7498C4.33982 14.2516 3.18847 13.3308 2.406 12.1248C1.62354 10.9188 1.25189 9.49211 1.34648 8.05761C1.44107 6.62311 1.99684 5.25762 2.93088 4.16479C3.86493 3.07195 5.12722 2.31033 6.52949 1.9935C7.93176 1.67668 9.39888 1.82163 10.712 2.40674M14.6654 3.16674L7.9987 9.84007L5.9987 7.84007" stroke="#525252" stroke-width="2" stroke-linecap="round" stroke-linejoin="round"/>
</g>
<defs>
<clipPath id="clip0_780_24313">
<rect width="16" height="16" fill="white" transform="translate(0 0.5)"/>
</clipPath>
</defs>
</svg>
