<svg width="43" height="43" viewBox="0 0 43 43" fill="none" xmlns="http://www.w3.org/2000/svg">
<g clip-path="url(#clip0_780_2732)">
<rect y="0.193359" width="42.281" height="42.2803" rx="21.1402" fill="#202020"/>
<path d="M17.6186 15.0261C17.6186 15.9607 16.8085 16.7183 15.8093 16.7183C14.81 16.7183 14 15.9607 14 15.0261C14 14.0916 14.81 13.334 15.8093 13.334C16.8085 13.334 17.6186 14.0916 17.6186 15.0261Z" fill="#E6E6E6"/>
<path d="M14.2474 17.9621H17.3402V27.334H14.2474V17.9621Z" fill="#E6E6E6"/>
<path d="M22.3196 17.9621H19.2268V27.334H22.3196C22.3196 27.334 22.3196 24.3836 22.3196 22.5388C22.3196 21.4316 22.6977 20.3195 24.2062 20.3195C25.911 20.3195 25.9008 21.7685 25.8928 22.8911C25.8824 24.3584 25.9072 25.8558 25.9072 27.334H29V22.3877C28.9738 19.2294 28.1508 17.7741 25.4433 17.7741C23.8354 17.7741 22.8387 18.504 22.3196 19.1645V17.9621Z" fill="#E6E6E6"/>
</g>
<defs>
<clipPath id="clip0_780_2732">
<rect y="0.193359" width="42.281" height="42.2803" rx="21.1402" fill="white"/>
</clipPath>
</defs>
</svg>
