<svg width="135" height="40" viewBox="0 0 135 40" fill="none" xmlns="http://www.w3.org/2000/svg">
    <path d="M130 40H5C2.25 40 0 37.75 0 35V5C0 2.25 2.25 3.8147e-06 5 3.8147e-06H130C132.75 3.8147e-06 135 2.25 135 5V35C135 37.75 132.75 40 130 40Z" fill="black"/>
    <path d="M47.418 10.2432C47.418 11.081 47.1699 11.7482 46.673 12.2459C46.1086 12.8377 45.373 13.1338 44.4687 13.1338C43.6027 13.1338 42.8664 12.8338 42.2609 12.233C41.6543 11.6326 41.3516 10.8881 41.3516 9.99979C41.3516 9.11109 41.6543 8.36699 42.2609 7.76619C42.8664 7.16579 43.6027 6.86539 44.4687 6.86539C44.8984 6.86539 45.3098 6.94939 45.7004 7.11699C46.091 7.28499 46.4043 7.50799 46.6387 7.78729L46.1113 8.31499C45.7141 7.84039 45.1672 7.60329 44.4687 7.60329C43.8371 7.60329 43.291 7.82519 42.8301 8.26929C42.3691 8.71389 42.1387 9.29039 42.1387 9.99979C42.1387 10.7092 42.3691 11.2857 42.8301 11.7303C43.291 12.1744 43.8371 12.3963 44.4687 12.3963C45.1387 12.3963 45.6973 12.1732 46.1445 11.7264C46.4348 11.4353 46.6027 11.0307 46.6476 10.5111H44.4687V9.79039H47.3762C47.4043 9.94709 47.418 10.0975 47.418 10.2432Z" fill="white"/>
    <path d="M47.4184 10.2438H47.3184C47.3176 11.0625 47.0784 11.6984 46.6026 12.1758L46.6015 12.1766L46.6012 12.1774C46.0547 12.7488 45.3522 13.0332 44.469 13.0344C43.6261 13.0332 42.9206 12.7457 42.3316 12.1629C41.7438 11.5789 41.4531 10.866 41.452 10.0004C41.4531 9.13437 41.7438 8.42187 42.3316 7.83827C42.9206 7.25507 43.6261 6.96717 44.469 6.96597C44.8858 6.96597 45.2827 7.04727 45.6612 7.20937C46.0401 7.37267 46.3394 7.58667 46.5624 7.85237L46.639 7.78787L46.5684 7.71717L46.0409 8.24527L46.1117 8.31557L46.1887 8.25157C45.773 7.75347 45.1894 7.50237 44.469 7.50387C43.814 7.50307 43.2378 7.73707 42.7612 8.19807C42.28 8.66057 42.0383 9.26947 42.0391 10.0004C42.0383 10.7313 42.28 11.3402 42.7612 11.8027C43.2378 12.2637 43.814 12.4977 44.469 12.4969C45.1612 12.4981 45.7512 12.2633 46.2156 11.7977C46.5258 11.4867 46.7015 11.0559 46.7476 10.5203L46.757 10.4117H44.569V9.89097H47.3765V9.79097L47.278 9.80857C47.3054 9.96017 47.3184 10.1043 47.3184 10.2438H47.4184H47.5184C47.5184 10.0918 47.5042 9.93557 47.4749 9.77307L47.4601 9.69097H44.369V10.5117V10.6117H46.6479V10.5117L46.5484 10.5031C46.5043 11.0063 46.344 11.3852 46.0742 11.6563C45.6445 12.0844 45.1171 12.2957 44.469 12.2969C43.8608 12.2961 43.3449 12.0867 42.9 11.659C42.4594 11.2328 42.2402 10.6887 42.2391 10.0004C42.2402 9.31207 42.4594 8.76797 42.9 8.34177C43.3449 7.91407 43.8608 7.70467 44.469 7.70387C45.1452 7.70547 45.6558 7.92887 46.0351 8.38007L46.1054 8.46367L46.7098 7.85857L46.7745 7.79377L46.7155 7.72377C46.4699 7.43087 46.1425 7.19837 45.7401 7.02577C45.337 6.85267 44.9116 6.76597 44.469 6.76597C43.58 6.76517 42.8129 7.07767 42.1906 7.69607C41.566 8.31327 41.2512 9.08907 41.252 10.0004C41.2512 10.9113 41.5659 11.6875 42.1909 12.3051C42.8128 12.9231 43.58 13.2352 44.469 13.2344C45.3948 13.2352 46.1628 12.9277 46.7456 12.3156L46.6734 12.2465L46.744 12.3172C47.262 11.7996 47.5191 11.1004 47.5184 10.2438H47.4184Z" fill="white"/>
    <path d="M52.0281 7.7371H49.2957V9.6395H51.7598V10.3605H49.2957V12.2629H52.0281V13H48.5254V7H52.0281V7.7371Z" fill="white"/>
    <path d="M52.0275 7.7367V7.6367H49.1951V9.7391H51.6592V10.2598L49.1951 10.2601V12.3625H51.9275V12.8996H48.6248V7.0996H51.9275V7.7367H52.0275V7.6367V7.7367H52.1275V6.9996V6.8996H48.4248V13.0996H52.1275V12.2625V12.1625H49.3951V10.4601H51.8592V9.6391V9.5391H49.3951V7.8367H52.1275V7.7367H52.0275Z" fill="white"/>
    <path d="M55.2793 13H54.5078V7.7371H52.832V7H56.9551V7.7371H55.2793V13Z" fill="white"/>
    <path d="M55.2788 12.9996V12.8996H54.6072V7.6367H52.9314V7.0996H56.8546V7.6367H55.1788V12.9996H55.2788V12.8996V12.9996H55.3788V7.8367H57.0546V6.9996V6.8996H52.7314V7.7367V7.8367H54.4072V13.0996H55.2788H55.3788V12.9996H55.2788Z" fill="white"/>
    <path d="M59.9375 13V7H60.7082V13H59.9375Z" fill="white"/>
    <path d="M59.9379 12.9996H60.0379V7.0996H60.6086V12.8996H59.9379V12.9996H60.0379H59.9379V13.0996H60.7086H60.8086V6.8996H59.9379H59.8379V13.0996H59.9379V12.9996Z" fill="white"/>
    <path d="M64.1288 13H63.3573V7.7371H61.6816V7H65.8046V7.7371H64.1288V13Z" fill="white"/>
    <path d="M64.1283 12.9996V12.8996H63.4568V7.6367H61.7811V7.0996H65.7041V7.6367H64.0283V12.9996H64.1283V12.8996V12.9996H64.2283V7.8367H65.9041V6.9996V6.8996H61.5811V7.7367V7.8367H63.2568V13.0996H64.1283H64.2283V12.9996H64.1283Z" fill="white"/>
    <path d="M69.7793 11.7221C70.2234 12.1717 70.7668 12.3963 71.4094 12.3963C72.052 12.3963 72.5957 12.1717 73.0391 11.7221C73.4836 11.2725 73.7063 10.6978 73.7063 9.99979C73.7063 9.30179 73.4836 8.72709 73.0391 8.27749C72.5957 7.82789 72.052 7.60329 71.4094 7.60329C70.7668 7.60329 70.2234 7.82789 69.7793 8.27749C69.3359 8.72709 69.1133 9.30179 69.1133 9.99979C69.1133 10.6978 69.3359 11.2725 69.7793 11.7221ZM73.6094 12.2244C73.0195 12.831 72.2859 13.1338 71.4094 13.1338C70.532 13.1338 69.7988 12.831 69.2102 12.2244C68.6199 11.6185 68.3262 10.8768 68.3262 9.99979C68.3262 9.12279 68.6199 8.38099 69.2102 7.77519C69.7988 7.16849 70.532 6.86539 71.4094 6.86539C72.2813 6.86539 73.0129 7.17009 73.6055 7.77909C74.1973 8.38809 74.4934 9.12829 74.4934 9.99979C74.4934 10.8768 74.198 11.6185 73.6094 12.2244Z" fill="white"/>
    <path d="M69.7797 11.7227L69.7086 11.793C70.1692 12.2606 70.7438 12.4981 71.4098 12.4969C72.0754 12.4981 72.6508 12.2606 73.1106 11.793C73.5742 11.325 73.8074 10.7195 73.8067 10.0004C73.8074 9.28127 73.5742 8.67577 73.1106 8.20777C72.6508 7.74017 72.0754 7.50267 71.4098 7.50387C70.7438 7.50267 70.1692 7.74017 69.7086 8.20777C69.2461 8.67577 69.0125 9.28127 69.0137 10.0004C69.0125 10.7195 69.2461 11.325 69.7086 11.793L69.7797 11.7227L69.8508 11.6524C69.4266 11.2207 69.2145 10.6777 69.2137 10.0004C69.2145 9.32307 69.4266 8.78008 69.8508 8.34837C70.2789 7.91677 70.7902 7.70507 71.4098 7.70387C72.0289 7.70507 72.5414 7.91677 72.9684 8.34837C73.3934 8.78008 73.6055 9.32307 73.6063 10.0004C73.6055 10.6777 73.3934 11.2207 72.9684 11.6524C72.5414 12.084 72.0289 12.2957 71.4098 12.2969C70.7902 12.2957 70.2789 12.084 69.8508 11.6524L69.7797 11.7227ZM73.6098 12.225L73.5383 12.1555C72.9649 12.743 72.2637 13.0332 71.4098 13.0344C70.5555 13.0332 69.8543 12.743 69.282 12.1555L69.2793 12.1524L69.282 12.1555C68.7098 11.566 68.4274 10.8551 68.4266 10.0004C68.4274 9.14567 68.7098 8.43477 69.282 7.84527C69.8543 7.25777 70.5555 6.96717 71.4098 6.96597C72.2582 6.96717 72.9578 7.25897 73.5344 7.84957C74.1086 8.44177 74.3926 9.15157 74.3938 10.0004C74.3926 10.8551 74.1094 11.566 73.5383 12.1555L73.6098 12.225L73.6817 12.2945C74.2879 11.6719 74.5945 10.8996 74.5938 10.0004C74.5945 9.10627 74.2867 8.33557 73.6777 7.71017C73.0684 7.08237 72.3051 6.76487 71.4098 6.76597C70.5098 6.76487 69.7442 7.08087 69.1387 7.70627V7.70587C68.5313 8.32887 68.2258 9.10117 68.2266 10.0004C68.2258 10.8996 68.5313 11.6719 69.1387 12.2949L69.1414 12.2977L69.1387 12.2945C69.7442 12.9199 70.5098 13.2352 71.4098 13.2344C72.3094 13.2352 73.075 12.9199 73.6817 12.2945L73.6098 12.225Z" fill="white"/>
    <path d="M75.5752 13V7H76.5135L79.4295 11.6676H79.4627L79.4295 10.5113V7H80.201V13H79.3963L76.3455 8.1062H76.3123L76.3455 9.2629V13H75.5752Z" fill="white"/>
    <path d="M75.5756 12.9996H75.6756V7.0996H76.4584L79.3744 11.7672H79.4631H79.5658L79.5299 10.5094V7.0996H80.1014V12.8996H79.4522L76.4014 8.00581H76.3127H76.21L76.2459 9.2641V12.8996H75.5756V12.9996H75.6756H75.5756V13.0996H76.3459H76.4459V9.26091L76.4127 8.1031L76.3127 8.10581V8.20581H76.3459V8.10581L76.2611 8.159L79.3412 13.0996H80.2014H80.3014V6.8996H79.4299H79.3299V10.5121L79.3631 11.6699L79.4631 11.6672V11.5672H79.4299V11.6672L79.5147 11.6141L76.5693 6.8996H75.5756H75.4756V13.0996H75.5756V12.9996Z" fill="white"/>
    <path d="M106.936 30H108.802V17.4988H106.936V30ZM123.743 22.002L121.604 27.4219H121.54L119.32 22.002H117.31L120.639 29.5773L118.741 33.791H120.688L125.818 22.002H123.743ZM113.161 28.5801C112.549 28.5801 111.697 28.2746 111.697 27.5184C111.697 26.5535 112.759 26.1836 113.675 26.1836C114.496 26.1836 114.881 26.3605 115.38 26.602C115.235 27.7598 114.238 28.5801 113.161 28.5801ZM113.386 21.7285C112.035 21.7285 110.636 22.3238 110.057 23.6426L111.713 24.334C112.067 23.6426 112.726 23.4172 113.418 23.4172C114.383 23.4172 115.364 23.9965 115.38 25.0258V25.1543C115.042 24.9613 114.319 24.6719 113.434 24.6719C111.649 24.6719 109.831 25.6527 109.831 27.4863C109.831 29.159 111.295 30.2367 112.935 30.2367C114.19 30.2367 114.881 29.6738 115.316 29.0145H115.38V29.9793H117.181V25.1863C117.181 22.9672 115.525 21.7285 113.386 21.7285ZM101.854 23.5238H99.2002V19.2387H101.854C103.249 19.2387 104.041 20.3937 104.041 21.3812C104.041 22.35 103.249 23.5238 101.854 23.5238ZM101.806 17.4988H97.3352V30H99.2002V25.2637H101.806C103.874 25.2637 105.907 23.7664 105.907 21.3812C105.907 18.9961 103.874 17.4988 101.806 17.4988ZM77.4252 28.5824C76.1361 28.5824 75.0568 27.5031 75.0568 26.0207C75.0568 24.5227 76.1361 23.427 77.4252 23.427C78.6979 23.427 79.6967 24.5227 79.6967 26.0207C79.6967 27.5031 78.6979 28.5824 77.4252 28.5824ZM79.5678 22.702H79.5033C79.0846 22.2027 78.2787 21.7516 77.2639 21.7516C75.1373 21.7516 73.1881 23.6203 73.1881 26.0207C73.1881 28.4051 75.1373 30.2578 77.2639 30.2578C78.2787 30.2578 79.0846 29.8066 79.5033 29.2914H79.5678V29.9035C79.5678 31.5309 78.6979 32.4008 77.2963 32.4008C76.1525 32.4008 75.4436 31.5789 75.1533 30.8863L73.5264 31.5629C73.9936 32.6906 75.2342 34.0762 77.2963 34.0762C79.4873 34.0762 81.34 32.7871 81.34 29.6457V22.0094H79.5678V22.702ZM82.6287 30H84.4975V17.4984H82.6287V30ZM87.2525 25.8758C87.2041 24.2324 88.5252 23.3949 89.4756 23.3949C90.2172 23.3949 90.8452 23.7652 91.0542 24.2973L87.2525 25.8758ZM93.0522 24.4582C92.6982 23.5074 91.6182 21.7516 89.4111 21.7516C87.2201 21.7516 85.3998 23.4754 85.3998 26.0047C85.3998 28.3891 87.2041 30.2578 89.6205 30.2578C91.5702 30.2578 92.6982 29.0656 93.1652 28.373L91.7152 27.4062C91.2322 28.1152 90.5712 28.5824 89.6205 28.5824C88.6701 28.5824 87.9936 28.1473 87.5584 27.2937L93.2452 24.9414L93.0522 24.4582ZM47.744 23.0566V24.8609H52.0615C51.9326 25.8758 51.5943 26.6168 51.0787 27.1324C50.4506 27.7609 49.4678 28.4535 47.744 28.4535C45.0857 28.4535 43.0076 26.3109 43.0076 23.6527C43.0076 20.9945 45.0857 18.8516 47.744 18.8516C49.1779 18.8516 50.2248 19.4156 50.9982 20.1406L52.2709 18.868C51.1916 17.8367 49.7576 17.0473 47.744 17.0473C44.1029 17.0473 41.042 20.0117 41.042 23.6527C41.042 27.2937 44.1029 30.2578 47.744 30.2578C49.7096 30.2578 51.1916 29.6137 52.3514 28.4051C53.5436 27.2129 53.9143 25.5375 53.9143 24.1844C53.9143 23.7652 53.8822 23.3789 53.8174 23.0566H47.744ZM58.8229 28.5824C57.5338 28.5824 56.4221 27.5191 56.4221 26.0047C56.4221 24.4742 57.5338 23.427 58.8229 23.427C60.1115 23.427 61.2232 24.4742 61.2232 26.0047C61.2232 27.5191 60.1115 28.5824 58.8229 28.5824ZM58.8229 21.7516C56.4705 21.7516 54.5533 23.5398 54.5533 26.0047C54.5533 28.4535 56.4705 30.2578 58.8229 30.2578C61.1748 30.2578 63.092 28.4535 63.092 26.0047C63.092 23.5398 61.1748 21.7516 58.8229 21.7516ZM68.1361 28.5824C66.8475 28.5824 65.7357 27.5191 65.7357 26.0047C65.7357 24.4742 66.8475 23.427 68.1361 23.427C69.4248 23.427 70.5365 24.4742 70.5365 26.0047C70.5365 27.5191 69.4248 28.5824 68.1361 28.5824ZM68.1361 21.7516C65.7838 21.7516 63.867 23.5398 63.867 26.0047C63.867 28.4535 65.7838 30.2578 68.1361 30.2578C70.4881 30.2578 72.4053 28.4535 72.4053 26.0047C72.4053 23.5398 70.4881 21.7516 68.1361 21.7516Z" fill="white"/>
    <path d="M10.5098 32.3896L10.4355 32.3185C10.1445 32.0106 9.97266 31.5325 9.97266 30.9134V31.0591V8.94314C9.97266 8.94114 9.97266 8.93964 9.97266 8.93804C9.97266 8.93994 9.97266 8.94154 9.97266 8.94354V9.08964C9.97266 8.41924 10.173 7.91425 10.5086 7.61144L22.8984 20.0009L10.5098 32.3896ZM9.97266 8.93684C9.97266 8.88174 9.97416 8.82824 9.97696 8.77554C9.97416 8.82784 9.97266 8.88174 9.97266 8.93684ZM9.97696 8.77315C9.97696 8.77245 9.97696 8.77164 9.97726 8.77084C9.97696 8.77164 9.97696 8.77245 9.97696 8.77315ZM9.97726 8.76614C9.97726 8.76575 9.97726 8.76534 9.97726 8.76495C9.97726 8.76534 9.97726 8.76575 9.97726 8.76614Z" fill="url(#paint0_linear_2129_14829)"/>
    <path d="M27.0277 24.2783L27.1219 24.2248L32.0148 21.4447C32.4813 21.1795 32.7922 20.858 32.9473 20.5178C32.7926 20.858 32.4816 21.1799 32.0148 21.4451L27.1219 24.2252L27.0277 24.2783ZM27.0289 24.1318L22.8984 20.0006L27.0285 15.8701L32.0148 18.7029C32.648 19.0627 33.0035 19.5264 33.0629 20.0002C33.0629 20.0006 33.0629 20.0014 33.0629 20.0021C33.0035 20.4748 32.648 20.9389 32.0148 21.2986L27.0289 24.1318Z" fill="url(#paint1_linear_2129_14829)"/>
    <path d="M11.3926 32.8613C11.0465 32.8613 10.7445 32.7488 10.509 32.5363L10.5094 32.5359C10.7449 32.7484 11.0473 32.8613 11.3934 32.8613C11.4234 32.8613 11.4539 32.8605 11.4848 32.859C11.4535 32.8605 11.4226 32.8613 11.3926 32.8613ZM11.393 32.7148C11.0469 32.7152 10.7449 32.6023 10.5094 32.3898V32.3895L22.898 20.0008L27.0285 24.132L12.5133 32.3793C12.1117 32.607 11.7312 32.7148 11.393 32.7148ZM10.5059 32.5336C10.484 32.5137 10.4625 32.4926 10.4414 32.4707L10.5059 32.5336Z" fill="url(#paint2_linear_2129_14829)"/>
    <path d="M22.8986 20.001L10.5088 7.61148C10.7443 7.39938 11.0459 7.28688 11.3916 7.28688C11.7307 7.28688 12.1115 7.39508 12.5139 7.62318L27.0287 15.8705L22.8986 20.001ZM27.1221 15.7772L12.5139 7.47718C12.1115 7.24898 11.7307 7.14078 11.3916 7.14078C11.39 7.14078 11.3889 7.14078 11.3873 7.14078C11.3893 7.14078 11.3908 7.14078 11.3932 7.14078C11.7315 7.14078 12.1119 7.24858 12.5139 7.47678L27.1221 15.7772Z" fill="url(#paint3_linear_2129_14829)"/>
    <path d="M11.4852 32.8594C11.7996 32.8414 12.1477 32.7332 12.5137 32.5258L27.0277 24.2789L12.5137 32.5258C12.148 32.7336 11.7996 32.8414 11.4852 32.8594ZM10.5094 32.5367L10.5063 32.534C10.5074 32.5348 10.5086 32.5359 10.5094 32.5367ZM10.4418 32.4711L10.4355 32.4649V32.4645C10.4379 32.4668 10.4398 32.4691 10.4418 32.4711Z" fill="black"/>
    <path d="M27.0273 24.2783L27.1215 24.2248L27.0273 24.2783Z" fill="url(#paint4_linear_2129_14829)"/>
    <path d="M11.3938 32.8613C11.0477 32.8613 10.7453 32.7484 10.5098 32.5359L10.5094 32.5363C10.5086 32.5355 10.5074 32.5344 10.5063 32.5336L10.4418 32.4707C10.4398 32.4687 10.4379 32.4664 10.4355 32.4641L10.5098 32.3898C10.7453 32.6023 11.0473 32.7152 11.3934 32.7148C11.7316 32.7148 12.1121 32.607 12.5137 32.3793L27.0289 24.132L27.1219 24.225L27.0277 24.2785L12.5137 32.5254C12.1477 32.7328 11.7996 32.841 11.4852 32.859C11.4543 32.8605 11.4238 32.8613 11.3938 32.8613Z" fill="url(#paint5_linear_2129_14829)"/>
    <path d="M10.4355 32.4648C10.1445 32.1569 9.97266 31.6788 9.97266 31.0597V31.0593C9.97266 31.6788 10.1445 32.1565 10.4355 32.4644V32.4648Z" fill="black"/>
    <path d="M10.4355 32.4639C10.1445 32.156 9.97266 31.6783 9.97266 31.0588V30.9131C9.97266 31.5322 10.1445 32.0103 10.4355 32.3182L10.5098 32.3893L10.4355 32.4639Z" fill="url(#paint6_linear_2129_14829)"/>
    <path d="M10.4355 32.4639L10.5098 32.3893V32.3896L10.4355 32.4639Z" fill="url(#paint7_linear_2129_14829)"/>
    <path d="M32.9473 20.5176C33.0241 20.3488 33.0628 20.1754 33.0628 20.0019C33.0628 20.0016 33.0628 20.0012 33.0628 20.0012C33.0628 20.175 33.0241 20.3484 32.9473 20.5176Z" fill="black"/>
    <path d="M27.1223 24.2246L27.0293 24.1316L32.0152 21.2984C32.6484 20.9387 33.0039 20.4746 33.0633 20.0019C33.0633 20.1754 33.0246 20.3488 32.9477 20.5176C32.7926 20.8578 32.4817 21.1793 32.0152 21.4445L27.1223 24.2246Z" fill="url(#paint8_linear_2129_14829)"/>
    <path d="M33.0625 20.001V20.0006C33.0621 19.4775 32.7125 18.9545 32.0144 18.5576L27.1215 15.7775H27.1211L27.1215 15.7772L32.0144 18.5572C32.7133 18.9541 33.0633 19.4779 33.0625 20.001Z" fill="#404040"/>
    <path d="M33.0627 20C33.0033 19.5262 32.6478 19.0625 32.0146 18.7027L27.0283 15.8699L27.1213 15.7769H27.1217L32.0146 18.557C32.7127 18.9539 33.0623 19.4769 33.0627 20Z" fill="url(#paint9_linear_2129_14829)"/>
    <path d="M9.97266 8.9375C9.97266 8.9371 9.97266 8.9367 9.97266 8.9363C9.97266 8.9367 9.97266 8.9371 9.97266 8.9375ZM9.97696 8.775C9.97696 8.7742 9.97696 8.7734 9.97696 8.7726C9.97696 8.7734 9.97696 8.7742 9.97696 8.775ZM9.97726 8.7703C9.97726 8.7687 9.97726 8.7672 9.97726 8.7656C9.97726 8.7672 9.97726 8.7687 9.97726 8.7703ZM9.97726 8.7644C10.0352 7.7371 10.5938 7.1437 11.384 7.1402C11.0414 7.1422 10.743 7.2547 10.5094 7.4652V7.4648L10.5066 7.4676C10.482 7.4898 10.4586 7.5133 10.4355 7.5375C10.173 7.8152 10.0074 8.2312 9.97726 8.7644Z" fill="#404040"/>
    <path d="M9.97266 9.08984V8.94374C9.97266 8.94174 9.97266 8.94014 9.97266 8.93824C9.97266 8.93784 9.97266 8.93745 9.97266 8.93705C9.97266 8.88195 9.97416 8.82804 9.97696 8.77574C9.97696 8.77494 9.97696 8.77415 9.97696 8.77335C9.97696 8.77265 9.97696 8.77184 9.97726 8.77104C9.97726 8.76944 9.97726 8.76795 9.97726 8.76635C9.97726 8.76595 9.97726 8.76555 9.97726 8.76515C10.0074 8.23195 10.173 7.81594 10.4355 7.53824L10.5086 7.61165C10.173 7.91445 9.97266 8.41944 9.97266 9.08984ZM10.5066 7.46834L10.5094 7.46555C10.5086 7.46675 10.5074 7.46754 10.5066 7.46834Z" fill="url(#paint10_linear_2129_14829)"/>
    <path d="M27.0285 15.8701L12.5137 7.62281C12.1113 7.39471 11.7305 7.28651 11.3914 7.28651C11.0457 7.28651 10.7441 7.39901 10.5086 7.61111L10.4355 7.53771C10.4586 7.51351 10.482 7.49001 10.5066 7.46781C10.5074 7.46701 10.5086 7.46621 10.5094 7.46541C10.743 7.25491 11.0414 7.14241 11.384 7.14041C11.3848 7.14041 11.3859 7.14041 11.3871 7.14041C11.3887 7.14041 11.3898 7.14041 11.3914 7.14041C11.7305 7.14041 12.1113 7.24861 12.5137 7.47681L27.1219 15.7768L27.1215 15.7771L27.0285 15.8701Z" fill="url(#paint11_linear_2129_14829)"/>
    <defs>
        <linearGradient id="paint0_linear_2129_14829" x1="21.7998" y1="8.70984" x2="5.01725" y2="25.4923" gradientUnits="userSpaceOnUse">
            <stop stop-color="#00A0FF"/>
            <stop offset="0.00657445" stop-color="#00A1FF"/>
            <stop offset="0.2601" stop-color="#00BEFF"/>
            <stop offset="0.5122" stop-color="#00D2FF"/>
            <stop offset="0.7604" stop-color="#00DFFF"/>
            <stop offset="1" stop-color="#00E3FF"/>
        </linearGradient>
        <linearGradient id="paint1_linear_2129_14829" x1="33.8344" y1="20.0012" x2="9.63744" y2="20.0012" gradientUnits="userSpaceOnUse">
            <stop stop-color="#FFE000"/>
            <stop offset="0.4087" stop-color="#FFBD00"/>
            <stop offset="0.7754" stop-color="#FFA500"/>
            <stop offset="1" stop-color="#FF9C00"/>
        </linearGradient>
        <linearGradient id="paint2_linear_2129_14829" x1="24.8266" y1="22.2961" x2="2.06828" y2="45.0544" gradientUnits="userSpaceOnUse">
            <stop stop-color="#FF3A44"/>
            <stop offset="1" stop-color="#C31162"/>
        </linearGradient>
        <linearGradient id="paint3_linear_2129_14829" x1="7.29749" y1="0.176379" x2="17.46" y2="10.3389" gradientUnits="userSpaceOnUse">
            <stop stop-color="#32A071"/>
            <stop offset="0.0685" stop-color="#2DA771"/>
            <stop offset="0.4762" stop-color="#15CF74"/>
            <stop offset="0.8009" stop-color="#06E775"/>
            <stop offset="1" stop-color="#00F076"/>
        </linearGradient>
        <linearGradient id="paint4_linear_2129_14829" x1="33.8317" y1="20.0008" x2="9.643" y2="20.0008" gradientUnits="userSpaceOnUse">
            <stop stop-color="#CCB300"/>
            <stop offset="0.4087" stop-color="#CC9700"/>
            <stop offset="0.7754" stop-color="#CC8400"/>
            <stop offset="1" stop-color="#CC7D00"/>
        </linearGradient>
        <linearGradient id="paint5_linear_2129_14829" x1="24.827" y1="22.2961" x2="2.06872" y2="45.0544" gradientUnits="userSpaceOnUse">
            <stop stop-color="#CC2E36"/>
            <stop offset="1" stop-color="#9C0E4E"/>
        </linearGradient>
        <linearGradient id="paint6_linear_2129_14829" x1="21.7997" y1="8.70943" x2="5.01721" y2="25.4919" gradientUnits="userSpaceOnUse">
            <stop stop-color="#008DE0"/>
            <stop offset="0.00657445" stop-color="#008DE0"/>
            <stop offset="0.2601" stop-color="#00A7E0"/>
            <stop offset="0.5122" stop-color="#00B8E0"/>
            <stop offset="0.7604" stop-color="#00C4E0"/>
            <stop offset="1" stop-color="#00C7E0"/>
        </linearGradient>
        <linearGradient id="paint7_linear_2129_14829" x1="24.8224" y1="22.2953" x2="2.06286" y2="45.0463" gradientUnits="userSpaceOnUse">
            <stop stop-color="#E0333C"/>
            <stop offset="1" stop-color="#AB0F56"/>
        </linearGradient>
        <linearGradient id="paint8_linear_2129_14829" x1="33.8348" y1="20.001" x2="9.63781" y2="20.001" gradientUnits="userSpaceOnUse">
            <stop stop-color="#E0C500"/>
            <stop offset="0.4087" stop-color="#E0A600"/>
            <stop offset="0.7754" stop-color="#E09100"/>
            <stop offset="1" stop-color="#E08900"/>
        </linearGradient>
        <linearGradient id="paint9_linear_2129_14829" x1="33.8342" y1="20.001" x2="9.63723" y2="20.001" gradientUnits="userSpaceOnUse">
            <stop stop-color="#FFE840"/>
            <stop offset="0.4087" stop-color="#FFCE40"/>
            <stop offset="0.7754" stop-color="#FFBC40"/>
            <stop offset="1" stop-color="#FFB540"/>
        </linearGradient>
        <linearGradient id="paint10_linear_2129_14829" x1="21.7998" y1="8.71004" x2="5.01728" y2="25.4926" gradientUnits="userSpaceOnUse">
            <stop stop-color="#40B8FF"/>
            <stop offset="0.00657445" stop-color="#40B9FF"/>
            <stop offset="0.2601" stop-color="#40CEFF"/>
            <stop offset="0.5122" stop-color="#40DDFF"/>
            <stop offset="0.7604" stop-color="#40E7FF"/>
            <stop offset="1" stop-color="#40EAFF"/>
        </linearGradient>
        <linearGradient id="paint11_linear_2129_14829" x1="7.29735" y1="0.17601" x2="17.4599" y2="10.3385" gradientUnits="userSpaceOnUse">
            <stop stop-color="#65B895"/>
            <stop offset="0.0685" stop-color="#62BD95"/>
            <stop offset="0.4762" stop-color="#50DB97"/>
            <stop offset="0.8009" stop-color="#44ED98"/>
            <stop offset="1" stop-color="#40F498"/>
        </linearGradient>
    </defs>
</svg>
