<svg width="319" height="692" viewBox="0 0 319 692" fill="none" xmlns="http://www.w3.org/2000/svg">
<g clip-path="url(#clip0_780_23785)">
<path d="M244.864 358.421C242.491 363.184 236.694 365.099 231.963 362.741C227.232 360.384 225.348 354.603 227.706 349.871C230.079 345.109 235.86 343.146 240.559 345.488C245.322 347.861 247.237 353.658 244.864 358.421ZM230.797 351.412C229.288 354.44 230.491 358.11 233.487 359.603C236.484 361.096 240.201 359.877 241.71 356.849C243.219 353.821 241.953 350.12 238.956 348.626C235.96 347.133 232.305 348.384 230.797 351.412Z" fill="#FBBC05" fill-opacity="0.2"/>
<path d="M280.669 286.566C278.296 291.329 272.499 293.244 267.768 290.886C263.036 288.529 261.153 282.748 263.51 278.017C265.868 273.285 271.649 271.323 276.349 273.665C281.111 276.038 283.042 281.803 280.669 286.566ZM266.601 279.557C265.077 282.616 266.295 286.255 269.292 287.748C272.288 289.241 276.006 288.022 277.515 284.995C279.023 281.967 277.758 278.265 274.761 276.772C271.765 275.279 268.126 276.497 266.601 279.557Z" fill="#FBBC05" fill-opacity="0.2"/>
<path d="M266.723 314.55C264.35 319.313 258.553 321.228 253.822 318.871C249.091 316.513 247.207 310.732 249.565 306.001C251.938 301.238 257.703 299.307 262.403 301.649C267.182 303.99 269.097 309.787 266.723 314.55ZM252.656 307.541C251.147 310.569 252.35 314.239 255.347 315.732C258.343 317.225 262.061 316.007 263.569 312.979C265.078 309.951 263.812 306.249 260.816 304.756C257.819 303.263 254.165 304.513 252.656 307.541Z" fill="#FBBC05" fill-opacity="0.2"/>
<path d="M336.892 349.512C334.519 354.275 328.722 356.19 323.991 353.832C319.228 351.459 317.313 345.662 319.67 340.931C322.043 336.168 327.84 334.253 332.572 336.61C337.35 338.952 339.265 344.749 336.892 349.512ZM322.793 342.487C321.284 345.515 322.519 349.201 325.547 350.71C328.543 352.203 332.261 350.984 333.769 347.956C335.278 344.928 334.012 341.226 331.016 339.733C327.988 338.224 324.302 339.459 322.793 342.487Z" fill="#FBBC05" fill-opacity="0.2"/>
<path d="M299.583 547.231C297.21 551.994 291.413 553.909 286.682 551.551C281.95 549.194 280.051 543.444 282.424 538.681C284.782 533.95 290.563 531.988 295.262 534.33C300.009 536.655 301.956 542.468 299.583 547.231ZM285.515 540.221C283.991 543.281 285.209 546.92 288.206 548.413C291.202 549.906 294.904 548.719 296.429 545.659C297.937 542.631 296.671 538.929 293.675 537.436C290.679 535.943 287.024 537.194 285.515 540.221Z" fill="#FBBC05" fill-opacity="0.2"/>
<path d="M301.798 472.578C299.44 477.309 293.628 479.256 288.896 476.898C284.165 474.541 282.282 468.76 284.639 464.028C286.997 459.297 292.778 457.335 297.477 459.677C302.224 462.003 304.171 467.815 301.798 472.578ZM287.73 465.569C286.206 468.628 287.424 472.267 290.421 473.76C293.417 475.253 297.119 474.066 298.644 471.006C300.168 467.947 298.886 464.277 295.89 462.784C292.893 461.291 289.255 462.509 287.73 465.569Z" fill="#FBBC05" fill-opacity="0.2"/>
<path d="M278.661 519.012C276.304 523.743 270.475 525.721 265.744 523.364C261.013 521.006 259.129 515.225 261.502 510.462C263.876 505.7 269.641 503.769 274.341 506.111C279.072 508.468 281.018 514.281 278.661 519.012ZM264.594 512.003C263.069 515.062 264.288 518.701 267.284 520.194C270.281 521.687 273.982 520.5 275.507 517.44C277.031 514.381 275.75 510.711 272.753 509.218C269.741 507.756 266.102 508.975 264.594 512.003Z" fill="#FBBC05" fill-opacity="0.2"/>
<path d="M239.032 668.76C236.659 673.522 230.894 675.453 226.194 673.111C221.431 670.738 219.501 664.973 221.874 660.21C224.231 655.479 230.028 653.564 234.759 655.921C239.459 658.263 241.39 664.028 239.032 668.76ZM224.965 661.75C223.44 664.81 224.706 668.512 227.703 670.005C230.699 671.498 234.354 670.248 235.878 667.188C237.387 664.16 236.184 660.49 233.188 658.997C230.191 657.504 226.473 658.722 224.965 661.75Z" fill="#FBBC05" fill-opacity="0.2"/>
<path d="M257.053 421.858C254.679 426.621 248.882 428.536 244.151 426.179C239.42 423.821 237.426 418.024 239.799 413.262C242.172 408.499 247.969 406.584 252.701 408.941C257.432 411.299 259.426 417.096 257.053 421.858ZM242.922 414.818C241.413 417.846 242.648 421.532 245.676 423.04C248.672 424.533 252.39 423.315 253.898 420.287C255.407 417.259 254.141 413.557 251.145 412.064C248.117 410.555 244.431 411.79 242.922 414.818Z" fill="#FBBC05" fill-opacity="0.2"/>
<path d="M238.322 547.339C235.964 552.07 230.152 554.017 225.42 551.659C220.658 549.286 218.743 543.489 221.1 538.758C223.457 534.027 229.27 532.08 234.001 534.438C238.78 536.779 240.695 542.576 238.322 547.339ZM224.223 540.314C222.698 543.373 223.948 547.028 226.976 548.537C229.973 550.03 233.675 548.843 235.199 545.783C236.724 542.724 235.442 539.053 232.445 537.56C229.417 536.052 225.747 537.254 224.223 540.314Z" fill="#FBBC05" fill-opacity="0.2"/>
<path d="M191.138 554.223C188.78 558.954 182.968 560.901 178.236 558.543C173.505 556.186 171.622 550.405 173.979 545.673C176.352 540.911 182.118 538.98 186.817 541.322C191.548 543.679 193.511 549.46 191.138 554.223ZM177.07 547.213C175.561 550.241 176.764 553.912 179.761 555.405C182.757 556.898 186.475 555.679 187.983 552.651C189.508 549.592 188.226 545.921 185.23 544.428C182.233 542.935 178.579 544.185 177.07 547.213Z" fill="#FBBC05" fill-opacity="0.2"/>
<path d="M165.102 676.69C162.745 681.421 156.917 683.4 152.185 681.042C147.486 678.7 145.571 672.904 147.944 668.141C150.317 663.378 156.082 661.447 160.782 663.789C165.529 666.115 167.491 671.896 165.102 676.69ZM151.035 669.681C149.526 672.709 150.729 676.379 153.725 677.872C156.753 679.381 160.44 678.147 161.948 675.119C163.473 672.059 162.191 668.389 159.195 666.896C156.198 665.403 152.559 666.621 151.035 669.681Z" fill="#FBBC05" fill-opacity="0.2"/>
<path d="M114.817 707.388C112.46 712.119 106.647 714.065 101.916 711.708C97.1847 709.351 95.3012 703.569 97.6587 698.838C100.016 694.107 105.813 692.113 110.513 694.455C115.244 696.812 117.19 702.625 114.817 707.388ZM100.75 700.378C99.2253 703.438 100.444 707.077 103.44 708.57C106.437 710.063 110.139 708.876 111.663 705.816C113.188 702.757 111.906 699.086 108.909 697.593C105.913 696.1 102.274 697.319 100.75 700.378Z" fill="#FBBC05" fill-opacity="0.2"/>
<path d="M168.228 529.977C165.855 534.74 160.042 536.686 155.311 534.329C150.548 531.956 148.618 526.19 151.006 521.396C153.364 516.665 159.176 514.718 163.908 517.076C168.639 519.433 170.585 525.246 168.228 529.977ZM154.097 522.936C152.573 525.996 153.823 529.65 156.851 531.159C159.848 532.652 163.549 531.465 165.074 528.405C166.583 525.377 165.317 521.676 162.32 520.182C159.292 518.674 155.606 519.908 154.097 522.936Z" fill="#FBBC05" fill-opacity="0.2"/>
<path d="M210.845 514.666C208.487 519.397 202.674 521.343 197.943 518.986C193.212 516.628 191.329 510.847 193.686 506.116C196.043 501.385 201.84 499.391 206.54 501.733C211.255 504.122 213.202 509.934 210.845 514.666ZM196.777 507.656C195.253 510.716 196.471 514.355 199.468 515.848C202.464 517.341 206.166 516.153 207.69 513.094C209.215 510.034 207.933 506.364 204.937 504.871C201.925 503.41 198.286 504.628 196.777 507.656Z" fill="#FBBC05" fill-opacity="0.2"/>
<path d="M286.669 432.714C284.296 437.477 278.499 439.391 273.767 437.034C269.068 434.692 267.153 428.895 269.51 424.164C271.868 419.433 277.649 417.471 282.348 419.812C287.095 422.138 289.042 427.951 286.669 432.714ZM272.601 425.704C271.093 428.732 272.295 432.403 275.292 433.896C278.32 435.404 282.006 434.17 283.515 431.142C285.023 428.114 283.757 424.412 280.761 422.919C277.765 421.426 274.11 422.676 272.601 425.704Z" fill="#FBBC05" fill-opacity="0.2"/>
<path d="M501.757 53.6028L420.128 217.429L392.087 203.458L335.981 316.061L278.323 287.332L279.879 284.209L334.415 311.382L390.521 198.779L418.561 212.751L498.634 52.0469L501.757 53.6028Z" fill="#FBBC05" fill-opacity="0.2"/>
<path d="M529.86 67.6057L424.893 278.271L396.789 264.268L339.552 379.142L311.511 365.171L286.083 416.205L254.92 400.677L269.017 372.385L242.522 359.183L244.078 356.061L273.696 370.818L259.598 399.111L284.516 411.526L309.96 360.461L338.001 374.432L395.223 259.59L423.326 273.593L526.738 66.0498L529.86 67.6057Z" fill="#FBBC05" fill-opacity="0.2"/>
<path d="M415.042 297.97L352.776 422.937L324.672 408.934L298.238 461.987L295.115 460.431L323.105 404.256L351.209 418.259L411.92 296.414L415.042 297.97Z" fill="#FBBC05" fill-opacity="0.2"/>
<path d="M223.456 537.959L221.885 541.113L164.258 512.4L190.771 459.19L218.812 473.161L243.47 423.673L246.593 425.229L220.378 477.84L192.338 463.868L168.953 510.802L223.456 537.959Z" fill="#FBBC05" fill-opacity="0.2"/>
<path d="M276.085 436.261L241.698 505.274L213.658 491.303L207.277 504.108L204.155 502.552L212.107 486.592L240.147 500.564L272.962 434.705L276.085 436.261Z" fill="#FBBC05" fill-opacity="0.2"/>
<path d="M297.601 603.919L234.532 730.495L231.41 728.939L292.906 605.518L267.989 593.102L250.23 628.744L219.003 613.185L264.941 520.989L268.064 522.545L223.682 611.618L248.663 624.065L266.438 588.392L297.601 603.919Z" fill="#FBBC05" fill-opacity="0.2"/>
<path d="M228.492 672.371L210.434 708.612L182.331 694.609L170.182 718.991L198.222 732.962L181.155 767.216L178.032 765.66L193.56 734.497L165.519 720.526L180.78 689.899L208.883 703.902L225.369 670.815L228.492 672.371Z" fill="#FBBC05" fill-opacity="0.2"/>
<path d="M148.649 621.799L118.05 683.211L90.0096 669.239L48.8022 751.941L45.6796 750.385L88.4428 664.561L116.483 678.532L143.971 623.366L115.93 609.395L154.293 532.402L157.416 533.958L120.609 607.828L148.649 621.799Z" fill="#FBBC05" fill-opacity="0.2"/>
<path d="M185.557 617.945L161.291 666.645L158.169 665.089L180.879 619.512L152.838 605.54L177.418 556.209L180.541 557.765L157.517 603.974L185.557 617.945Z" fill="#FBBC05" fill-opacity="0.2"/>
<path d="M500.316 337.703L469.733 399.083L441.692 385.111L412.995 442.706L384.954 428.735L352.674 493.521L324.57 479.518L296.156 536.545L293.033 534.989L323.004 474.839L351.107 488.842L383.388 424.056L411.428 438.028L440.141 380.401L468.182 394.373L495.638 339.27L467.597 325.299L502.628 254.993L505.751 256.548L472.276 323.732L500.316 337.703Z" fill="#FBBC05" fill-opacity="0.2"/>
<path d="M322.007 340.161L265.926 312.218L264.37 315.34L320.451 343.283L322.007 340.161Z" fill="#FBBC05" fill-opacity="0.2"/>
<path d="M365.512 608.228L320.36 698.847L292.32 684.875L248.661 772.498L220.62 758.526L165.976 868.196L162.853 866.64L219.054 753.848L247.094 767.819L290.769 680.165L318.809 694.137L360.818 609.827L332.778 595.855L368.673 523.814L371.796 525.37L337.472 594.257L365.512 608.228Z" fill="#FBBC05" fill-opacity="0.2"/>
<path d="M326.517 616.207L323.395 614.651L301.361 658.872L304.483 660.428L326.517 616.207Z" fill="#FBBC05" fill-opacity="0.2"/>
<path d="M334.481 810.929L278.343 923.595L275.22 922.039L329.802 812.495L301.762 798.524L345.342 711.06L317.302 697.088L362.407 606.564L390.447 620.535L424.724 551.744L427.847 553.299L392.014 625.214L363.974 611.242L322.012 695.458L350.052 709.43L306.44 796.957L334.481 810.929Z" fill="#FBBC05" fill-opacity="0.2"/>
<path d="M307.208 672.529C304.851 677.26 299.085 679.19 294.385 676.849C289.654 674.491 287.692 668.71 290.049 663.979C292.422 659.216 298.219 657.301 302.951 659.659C307.65 662 309.581 667.766 307.208 672.529ZM293.14 665.519C291.616 668.579 292.85 672.186 295.91 673.71C298.938 675.219 302.561 673.953 304.054 670.957C305.578 667.897 304.375 664.227 301.379 662.734C298.367 661.272 294.649 662.491 293.14 665.519Z" fill="#FBBC05" fill-opacity="0.2"/>
<path d="M337.79 611.148C335.433 615.879 329.683 617.778 324.983 615.436C320.252 613.079 318.274 607.329 320.631 602.598C323.005 597.835 328.801 595.92 333.533 598.278C338.232 600.619 340.163 606.385 337.79 611.148ZM323.722 604.138C322.198 607.198 323.432 610.805 326.492 612.33C329.52 613.838 333.143 612.572 334.636 609.576C336.16 606.516 334.957 602.846 331.961 601.353C328.965 599.86 325.231 601.11 323.722 604.138Z" fill="#FBBC05" fill-opacity="0.2"/>
</g>
<defs>
<clipPath id="clip0_780_23785">
<rect width="881" height="881" fill="white" transform="translate(393.68 -2.21875) rotate(26.4855)"/>
</clipPath>
</defs>
</svg>
