<svg width="20" height="21" viewBox="0 0 20 21" fill="none" xmlns="http://www.w3.org/2000/svg">
<g clip-path="url(#clip0_780_2741)">
<path d="M18.7825 5.68366C18.6835 5.28817 18.4819 4.9258 18.1981 4.63316C17.9142 4.34053 17.5581 4.12798 17.1658 4.01699C15.7325 3.66699 9.99917 3.66699 9.99917 3.66699C9.99917 3.66699 4.26584 3.66699 2.83251 4.05033C2.44021 4.16131 2.08416 4.37386 1.8003 4.6665C1.51644 4.95914 1.31483 5.3215 1.21584 5.71699C0.95352 7.17162 0.825204 8.64725 0.832508 10.1253C0.823157 11.6145 0.951481 13.1014 1.21584 14.567C1.32497 14.9502 1.5311 15.2988 1.81429 15.5791C2.09749 15.8593 2.44819 16.0618 2.83251 16.167C4.26584 16.5503 9.99917 16.5503 9.99917 16.5503C9.99917 16.5503 15.7325 16.5503 17.1658 16.167C17.5581 16.056 17.9142 15.8435 18.1981 15.5508C18.4819 15.2582 18.6835 14.8958 18.7825 14.5003C19.0428 13.0566 19.1711 11.5923 19.1658 10.1253C19.1752 8.63612 19.0469 7.14924 18.7825 5.68366Z" stroke="#E6E6E6" stroke-width="1.66667" stroke-linecap="round" stroke-linejoin="round"/>
<path d="M8.12417 12.8503L12.9158 10.1253L8.12417 7.40032V12.8503Z" stroke="#E6E6E6" stroke-width="1.66667" stroke-linecap="round" stroke-linejoin="round"/>
</g>
<defs>
<clipPath id="clip0_780_2741">
<rect width="20" height="20" fill="white" transform="translate(0 0.333984)"/>
</clipPath>
</defs>
</svg>
